<svg xmlns="http://www.w3.org/2000/svg" width="512" height="512" viewBox="0 0 512 512" version="1.1"><path d="M 48.762 17.942 C 34.272 22.574, 21.851 35.319, 17.585 49.932 C 16.161 54.810, 16 75.808, 16 256.092 C 16 450.289, 16.062 457.020, 17.895 462.909 C 22.481 477.646, 35.143 490.098, 49.932 494.415 C 54.810 495.839, 75.808 496, 256.092 496 C 450.289 496, 457.020 495.938, 462.909 494.105 C 477.646 489.519, 490.098 476.857, 494.415 462.068 C 495.834 457.206, 496 439.143, 496 289.769 C 496 146.715, 495.795 122.515, 494.565 120.200 C 492.831 116.939, 394.421 18.674, 391.316 17.104 C 389.747 16.311, 342.006 16.015, 221.816 16.054 C 62.373 16.105, 54.230 16.194, 48.762 17.942 M 61.123 49.002 C 56.715 50.043, 52.983 52.890, 50.500 57.105 C 48.522 60.463, 48.497 62.572, 48.202 251.500 C 48.038 356.550, 48.180 444.840, 48.518 447.700 C 49.244 453.854, 52.182 458.614, 57.003 461.446 C 60.102 463.266, 62.523 463.540, 78.250 463.847 L 96 464.194 96 403.779 C 96 351.579, 96.216 342.624, 97.585 337.932 C 101.902 323.143, 114.354 310.481, 129.091 305.895 C 134.924 304.079, 140.228 304, 256 304 C 371.772 304, 377.076 304.079, 382.909 305.895 C 397.646 310.481, 410.098 323.143, 414.415 337.932 C 415.784 342.624, 416 351.579, 416 403.779 L 416 464.194 433.750 463.847 C 449.317 463.543, 451.918 463.254, 454.895 461.500 C 459.264 458.927, 461.902 455.340, 463.043 450.423 C 463.568 448.159, 463.962 380.746, 463.976 290.996 L 464 135.491 420.246 91.746 L 376.492 48 364.246 48 L 352 48 352 99.462 C 352 149.186, 351.930 151.113, 349.914 156.501 C 347.130 163.942, 339.942 171.130, 332.501 173.914 C 327.041 175.957, 325.455 176, 256 176 C 186.545 176, 184.959 175.957, 179.499 173.914 C 172.058 171.130, 164.870 163.942, 162.086 156.501 C 160.070 151.113, 160 149.186, 160 99.462 L 160 48 112.250 48.102 C 85.987 48.159, 62.980 48.564, 61.123 49.002 M 192 96 L 192 144 256 144 L 320 144 320 96 L 320 48 256 48 L 192 48 192 96 M 141.123 337.002 C 136.715 338.043, 132.983 340.890, 130.500 345.105 C 128.572 348.378, 128.490 350.575, 128.212 406.250 L 127.923 464 256 464 L 384.077 464 383.788 406.250 C 383.510 350.575, 383.428 348.378, 381.500 345.105 C 378.927 340.736, 375.340 338.098, 370.423 336.957 C 365.589 335.836, 145.879 335.879, 141.123 337.002" stroke="none" fill="currentColor" fill-rule="evenodd"/></svg>