<svg xmlns="http://www.w3.org/2000/svg" width="512" height="512" viewBox="0 0 512 512" version="1.1" style="height:2em;width:2em"><path d="M 58.500 185.888 C 51.101 187.806, 44.922 192.866, 41.879 199.500 C 39.671 204.312, 39.398 214.624, 41.354 219.305 C 43.307 223.979, 51.507 233.699, 65.563 248 L 77.849 260.500 61.871 288 C 39.498 326.506, 39.647 326.198, 39.643 334 C 39.636 348.296, 49.394 357.928, 63.934 357.978 C 71.180 358.003, 76.948 355.762, 81.242 351.253 C 83.204 349.193, 106.123 310.634, 116.568 291.821 C 117.395 290.331, 118.399 290.657, 125.500 294.721 C 135.653 300.532, 156.049 309.820, 166.750 313.505 C 171.287 315.068, 175 316.768, 175 317.283 C 175 317.798, 172.750 330.990, 170 346.598 C 167.250 362.206, 165 377.246, 165 380.020 C 165 391.528, 173.456 401.269, 185.315 403.422 C 194.846 405.153, 206.805 399.230, 210.830 390.785 C 212.078 388.167, 214.842 375.307, 217.936 357.719 C 220.721 341.890, 223 328.615, 223 328.219 C 223 327.824, 237.763 327.500, 255.807 327.500 L 288.614 327.500 293.839 357.500 C 299.621 390.689, 300.693 393.737, 308.524 399.225 C 320.919 407.912, 338.249 403.251, 344.649 389.507 C 345.931 386.753, 346.985 382.598, 346.990 380.273 C 346.996 377.948, 344.750 363.336, 342 347.802 C 339.250 332.267, 337.007 318.870, 337.015 318.029 C 337.025 316.997, 340.842 315.081, 348.765 312.133 C 361.449 307.412, 376.363 300.508, 387.500 294.199 L 394.500 290.234 411 318.833 C 420.075 334.562, 428.607 348.748, 429.959 350.358 C 438.454 360.470, 457.731 360.224, 466.442 349.893 C 470.641 344.913, 472 340.871, 472 333.364 C 472 325.552, 472.114 325.786, 448.630 285.500 L 434.056 260.500 446.390 248 C 460.436 233.764, 468.679 224.012, 470.646 219.305 C 472.602 214.624, 472.329 204.312, 470.121 199.500 C 466.090 190.712, 458.011 185.653, 447.944 185.614 C 438.485 185.577, 433.729 188.672, 421.231 203 C 405.463 221.076, 386.637 236.979, 367 248.810 C 329.175 271.599, 289.578 281.167, 242.716 278.840 C 184.966 275.973, 131.481 249.388, 91.181 203.519 C 85.856 197.458, 80.825 191.927, 80 191.227 C 74.676 186.711, 64.793 184.256, 58.500 185.888" stroke="none" fill="currentColor" fill-rule="evenodd"/><path d="" stroke="none" fill="currentColor" fill-rule="evenodd"/></svg>