<svg xmlns="http://www.w3.org/2000/svg" width="512" height="512" viewBox="0 0 512 512" version="1.1"><path d="" stroke="none" fill="#080404" fill-rule="evenodd"/><path d="M 148.500 17.393 C 137.286 20.975, 128.522 28.573, 123.582 38.997 L 120.500 45.500 120.500 256 L 120.500 466.500 123.582 473.003 C 127.530 481.333, 134.667 488.470, 142.997 492.418 L 149.500 495.500 256 495.500 L 362.500 495.500 369.003 492.418 C 377.333 488.470, 384.470 481.333, 388.418 473.003 L 391.500 466.500 391.500 256 L 391.500 45.500 388.418 38.997 C 384.470 30.667, 377.333 23.530, 369.003 19.582 L 362.500 16.500 257.500 16.308 C 174.616 16.156, 151.657 16.384, 148.500 17.393 M 153.713 33.422 C 147.473 35.100, 142.121 39.524, 139.004 45.580 L 136.500 50.446 136.235 252.973 C 136.047 396.289, 136.288 457.041, 137.060 460.771 C 138.471 467.589, 143.156 473.690, 149.483 476.945 L 154.447 479.500 256 479.500 L 357.553 479.500 362.517 476.945 C 368.731 473.748, 373.485 467.627, 374.908 460.994 C 376.449 453.807, 376.449 58.193, 374.908 51.006 C 373.486 44.375, 368.732 38.253, 362.521 35.055 C 357.768 32.607, 356.724 32.486, 337.530 32.171 L 317.500 31.843 312.304 42.325 C 306.232 54.575, 302.657 59.001, 296.499 61.895 C 292.207 63.913, 290.534 64, 256 64 C 221.466 64, 219.793 63.913, 215.501 61.895 C 209.358 59.008, 205.776 54.585, 199.718 42.404 L 194.544 32 176.522 32.067 C 165.184 32.110, 156.725 32.612, 153.713 33.422 M 210.174 450.314 C 207.195 453.486, 207.261 458.957, 210.314 461.826 C 212.618 463.989, 212.842 464, 256.140 464 L 299.651 464 301.826 461.686 C 304.805 458.514, 304.739 453.043, 301.686 450.174 C 299.382 448.011, 299.158 448, 255.860 448 L 212.349 448 210.174 450.314" stroke="none" fill="currentColor" fill-rule="evenodd"/></svg>