<svg xmlns="http://www.w3.org/2000/svg" width="512" height="512" viewBox="0 0 512 512" version="1.1"><path d="M 239.500 8.587 C 215.045 11.015, 198.300 14.283, 180 20.199 C 162.202 25.954, 153.670 30.180, 150.944 34.591 C 145.907 42.740, 148.105 53.394, 155.885 58.542 C 161.848 62.489, 167.063 62.172, 180.441 57.053 C 258.169 27.311, 347.439 46.444, 406.498 105.502 C 451.055 150.059, 473.977 213.511, 467.937 275.576 C 466.440 290.959, 462.634 309.119, 457.926 323.337 C 453.015 338.169, 442.317 360.202, 433.813 373 L 427.500 382.500 426.931 376 C 426.266 368.410, 425.326 366.371, 420.560 362.186 C 412.258 354.898, 399.429 357.718, 394.250 367.970 C 392.053 372.320, 392 373.193, 392 405.289 L 392 438.154 394.923 441.077 L 397.846 444 431.107 444 C 462.833 444, 464.568 443.903, 468.698 441.904 C 478.563 437.128, 481.145 423.258, 473.683 415.118 C 470.148 411.262, 464.174 409.046, 457.243 409.022 L 450.986 409 456.509 401.531 C 480.052 369.697, 496.262 328.648, 502.134 286 C 503.991 272.506, 503.721 236.379, 501.661 222.695 C 493.257 166.891, 469.699 119.601, 431.049 80.952 C 392.568 42.471, 344.343 18.441, 289.500 10.420 C 279.701 8.987, 247.403 7.803, 239.500 8.587 M 43.223 70.119 C 33.418 74.972, 30.887 88.777, 38.317 96.882 C 41.852 100.738, 47.826 102.954, 54.757 102.978 L 61.014 103 55.682 110.250 C 32.470 141.814, 16.583 180.965, 10.339 222 C 8.148 236.396, 7.867 272.923, 9.838 287 C 17.980 345.140, 43.518 395.573, 84.895 435.221 C 141.026 489.009, 221.745 513.751, 297.500 500.390 C 317.660 496.834, 345.908 488.174, 355.300 482.670 C 366.237 476.260, 366.729 460.451, 356.211 453.364 C 350.110 449.252, 346.697 449.417, 333.165 454.479 C 275.822 475.929, 216.359 473.340, 162.500 447.046 C 119.418 426.014, 85.986 392.582, 64.954 349.500 C 35.811 289.804, 35.816 222.087, 64.968 162.500 C 68.735 154.800, 74.671 144.225, 78.159 139 L 84.500 129.500 85.069 136 C 85.734 143.590, 86.674 145.629, 91.440 149.814 C 99.742 157.102, 112.571 154.282, 117.750 144.030 C 119.947 139.680, 120 138.807, 120 106.711 L 120 73.846 117.077 70.923 L 114.154 68 80.827 68.001 C 48.900 68.002, 47.320 68.091, 43.223 70.119" stroke="none" fill="currentColor" fill-rule="evenodd"/><path d="M 331.612 147.250 C 330.237 148.488, 301.579 185.500, 267.928 229.500 C 234.276 273.500, 206.439 309.839, 206.069 310.252 C 205.698 310.666, 199.033 304.944, 191.258 297.537 C 183.483 290.129, 175.969 283.779, 174.561 283.426 C 169.643 282.192, 166.595 284.046, 155.750 294.871 C 145.310 305.290, 145 305.728, 144.991 310.050 L 144.983 314.500 169.367 338.743 C 186.373 355.651, 195.076 363.587, 198.126 364.971 C 208.102 369.498, 219.201 366.305, 226.601 356.779 C 228.857 353.876, 261.370 311.495, 298.851 262.599 C 371.644 167.640, 369.270 171.110, 365.841 164.703 C 364.577 162.341, 363.839 161.707, 350.769 151.750 C 343.334 146.086, 341.280 145, 338.010 145 C 335.374 145, 333.302 145.729, 331.612 147.250" stroke="none" fill="currentColor" fill-rule="evenodd"/></svg>