<?xml version="1.0" encoding="UTF-8"?>
<svg version="1.1" xmlns="http://www.w3.org/2000/svg" width="512" height="512">
<path d="M0 0 C1.49055908 0.30599121 1.49055908 0.30599121 3.01123047 0.61816406 C47.89901632 10.11113278 89.69773179 29.92601599 123.30078125 61.48828125 C125.48804586 63.52360852 127.70817803 65.46121052 130 67.375 C173.83318081 105.69514157 200.35409546 167.87986711 205 225 C205.15476268 228.29054387 205.20881141 231.57724718 205.23828125 234.87109375 C205.2480751 235.78289398 205.25786896 236.69469421 205.26795959 237.63412476 C205.43959256 257.75694221 205.29144179 277.24574413 201 297 C200.78037598 298.02770508 200.56075195 299.05541016 200.33447266 300.11425781 C191.83050376 338.86057894 174.61651282 375.56870466 149 406 C148.57138672 406.51739746 148.14277344 407.03479492 147.70117188 407.56787109 C137.18164284 420.2564129 126.03816903 431.86528878 113 442 C111.52660156 443.18142578 111.52660156 443.18142578 110.0234375 444.38671875 C70.29759115 476.0035908 18.37047678 496.93437939 -32.79296875 497.203125 C-33.69337387 497.21018463 -34.59377899 497.21724426 -35.52146912 497.22451782 C-72.90689561 497.45113154 -72.90689561 497.45113154 -90 494 C-91.00482422 493.80664062 -92.00964844 493.61328125 -93.04492188 493.4140625 C-137.29810776 484.71907631 -180.27429055 464.3677962 -213 433 C-213.55945313 432.48695313 -214.11890625 431.97390625 -214.6953125 431.4453125 C-216.87594341 429.02964352 -217.01422724 426.80793231 -217.25 423.625 C-216.84693398 417.78054275 -213.78716175 414.53693792 -209.75976562 410.50097656 C-208.90878296 409.64368958 -208.05780029 408.78640259 -207.18103027 407.90313721 C-205.80751404 406.53569366 -205.80751404 406.53569366 -204.40625 405.140625 C-203.45336157 404.18638809 -202.5007701 403.23185456 -201.54846191 402.27703857 C-199.55783945 400.28347633 -197.56366653 398.29355455 -195.56689453 396.30615234 C-193.00781323 393.75849597 -190.45785733 391.20192376 -187.91046906 388.64258194 C-185.94783962 386.6727294 -183.98047654 384.7076603 -182.01164246 382.74401093 C-180.61138314 381.34573319 -179.21514875 379.94342858 -177.81896973 378.54107666 C-176.54249573 377.27405914 -176.54249573 377.27405914 -175.24023438 375.98144531 C-174.49205444 375.23485657 -173.74387451 374.48826782 -172.97302246 373.71905518 C-170.28926271 371.38074876 -168.27046528 371.02600628 -164.75 370.6875 C-158.00698768 371.24941769 -154.05632791 374.90749213 -149.0625 379.125 C-115.71584573 406.77059805 -70.95389517 418.20797966 -28.24658203 414.53759766 C13.81415984 410.20269893 55.44482909 389.61451989 82.64453125 356.85546875 C85.52488806 353.30713696 88.28504865 349.67597027 91 346 C91.42958008 345.42008301 91.85916016 344.84016602 92.30175781 344.24267578 C117.70522317 309.42291438 127.90596461 263.81169033 121.40234375 221.35546875 C113.658787 176.02183069 89.42958498 136.43546725 52.14306641 109.50585938 C29.37326269 93.50629805 3.40040559 84.16665269 -24 80 C-24.99773437 79.84789063 -25.99546875 79.69578125 -27.0234375 79.5390625 C-29.6934983 79.22741503 -32.31227979 79.08344798 -35 79 C-35.70463379 78.97421875 -36.40926758 78.9484375 -37.13525391 78.921875 C-82.82409826 77.44416829 -123.02553408 93.15009494 -158 122 C-156.58106554 125.23273186 -154.87366391 127.36174532 -152.36401367 129.83129883 C-151.61951462 130.56919144 -150.87501556 131.30708405 -150.10795593 132.06733704 C-148.90016228 133.25023567 -148.90016228 133.25023567 -147.66796875 134.45703125 C-146.83920731 135.27821945 -146.01044586 136.09940765 -145.15657043 136.94548035 C-141.61272749 140.45666211 -138.05728017 143.95600737 -134.50268555 147.45629883 C-131.90780181 150.01488715 -129.31902683 152.57954584 -126.73046875 155.14453125 C-125.53178413 156.31832085 -125.53178413 156.31832085 -124.30888367 157.51582336 C-116.85274659 164.90662693 -111.09534172 171.40360646 -110.625 182.3125 C-110.76814789 189.32674663 -112.86865188 194.47603512 -117.375 199.8125 C-123.70219271 205.08516059 -127.85010173 207.11138136 -135.99441528 207.15390015 C-137.83630684 207.16680084 -137.83630684 207.16680084 -139.71540833 207.17996216 C-141.07345539 207.18439704 -142.4315029 207.18869543 -143.78955078 207.19287109 C-145.22217506 207.20077634 -146.65479736 207.20904556 -148.0874176 207.21765137 C-152.79003001 207.24382667 -157.49265111 207.25917639 -162.1953125 207.2734375 C-163.81716797 207.27879938 -165.43902339 207.28417689 -167.06087875 207.28956985 C-173.81046592 207.31119366 -180.56005075 207.32992796 -187.30966377 207.34119225 C-196.96612943 207.35741633 -206.62219179 207.39056211 -216.27850544 207.44759309 C-223.07698758 207.48636905 -229.87536221 207.50583407 -236.67395198 207.51111281 C-240.72987154 207.51475635 -244.78536051 207.52667025 -248.84115982 207.55921555 C-252.66133267 207.58943097 -256.48081745 207.59556075 -260.30108452 207.58383179 C-261.69661343 207.58361216 -263.09217552 207.59182502 -264.4875927 207.60948563 C-273.88709597 207.72188959 -281.82880467 206.84744297 -288.93528938 200.18587303 C-293.5656561 195.19695669 -295.24644605 190.58791408 -295.26742554 183.75798035 C-295.27595551 182.5005452 -295.28448547 181.24311005 -295.29327393 179.9475708 C-295.29257496 178.56164538 -295.29165193 177.17572006 -295.29052734 175.78979492 C-295.29651445 174.32422036 -295.30332042 172.85864895 -295.31088257 171.39308167 C-295.3285323 167.41774386 -295.33323754 163.44249218 -295.33451414 159.46711898 C-295.335937 156.98134389 -295.34020917 154.49559061 -295.34550858 152.00982094 C-295.36400618 143.33164711 -295.37217962 134.65353468 -295.37060547 125.9753418 C-295.36940447 117.89609145 -295.39049919 109.81710843 -295.4220928 101.73792571 C-295.44827811 94.79337092 -295.45897181 87.84890331 -295.45769465 80.90429956 C-295.45718563 76.76023826 -295.46283513 72.61641454 -295.48405075 68.47240257 C-295.50347106 64.57265656 -295.50353206 60.6733738 -295.48901749 56.77361107 C-295.48693289 55.34662191 -295.49160949 53.91960347 -295.5037384 52.49266434 C-295.57604333 43.39294619 -295.23469165 36.83243143 -289.03515625 29.7578125 C-288.38417969 29.21898437 -287.73320312 28.68015625 -287.0625 28.125 C-286.41410156 27.57070313 -285.76570313 27.01640625 -285.09765625 26.4453125 C-278.58595351 21.95866443 -271.63877317 22.34674118 -264 23 C-251.32442138 25.85800482 -239.17126551 42.69975149 -230.25 51.6875 C-229.05232198 52.89021165 -227.8544064 54.09268679 -226.65625 55.29492188 C-223.76810121 58.193909 -220.88313815 61.09602993 -218 64 C-213.15543911 60.44265984 -208.51365992 56.77995905 -204 52.8125 C-196.74986261 46.58000109 -189.00471013 41.21236939 -181 36 C-180.13979248 35.43249023 -180.13979248 35.43249023 -179.26220703 34.85351562 C-152.33791162 17.25676286 -121.52359105 5.86881615 -90 0 C-89.1843457 -0.16226074 -88.36869141 -0.32452148 -87.52832031 -0.49169922 C-60.01851938 -5.78708998 -27.42840243 -5.69163446 0 0 Z " fill="currentColor" transform="translate(301,9)"/>
</svg>