<svg xmlns="http://www.w3.org/2000/svg" width="512" height="512" viewBox="0 0 512 512" version="1.1"><path d="M 238.591 93.030 C 186.115 97.702, 131.458 123.041, 77.341 167.786 C 53.718 187.318, 12.779 230.242, 2.868 245.869 C -1.166 252.231, -1.166 259.769, 2.868 266.131 C 12.725 281.674, 53.907 324.856, 77.341 344.220 C 142.860 398.362, 208.594 423.829, 270.310 418.983 C 302.196 416.479, 330.381 408.316, 362.304 392.340 C 408.574 369.183, 456.413 329.985, 496.209 282.620 C 510.574 265.524, 513 261.444, 513 254.381 C 513 251.238, 512.712 248.955, 512.359 249.307 C 512.007 249.660, 510.491 248.013, 508.991 245.647 C 499.269 230.317, 457.920 187.001, 434.659 167.780 C 392.470 132.917, 349.167 109.391, 308.354 99.158 C 285.550 93.441, 259.589 91.160, 238.591 93.030 M 238 128.037 C 184.034 134.658, 128.988 165.043, 74.138 218.489 C 58.938 233.300, 40 254.031, 40 255.860 C 40 258.624, 66.536 286.918, 85 303.842 C 132.584 347.454, 181.063 374.057, 228.500 382.588 C 242.093 385.033, 269.761 385.073, 283 382.668 C 326.145 374.829, 367.511 353.950, 410.778 318.172 C 430.001 302.277, 472 259.610, 472 255.978 C 472 254.176, 451.376 231.589, 437.319 217.997 C 385.280 167.675, 334.519 138.464, 283.500 129.479 C 272.557 127.551, 248.240 126.781, 238 128.037 M 242.500 155.079 C 213.589 159.053, 187.491 175.424, 171.319 199.728 C 144.528 239.993, 149.883 293.676, 184.103 327.897 C 218.324 362.117, 272.007 367.472, 312.272 340.681 C 348.981 316.255, 365.829 270.736, 353.909 228.188 C 344.023 192.899, 313.112 163.834, 277.744 156.573 C 267.828 154.537, 251.481 153.844, 242.500 155.079 M 242.500 190.413 C 218.547 195.952, 200.210 212.438, 192.519 235.350 C 178.718 276.461, 208.760 320.242, 252.451 322.692 C 291.587 324.885, 324.885 291.587, 322.692 252.451 C 321.145 224.864, 302.926 201.355, 276.096 192.326 C 266.705 189.166, 251.610 188.307, 242.500 190.413 M 0.320 256 C 0.320 259.575, 0.502 261.038, 0.723 259.250 C 0.945 257.462, 0.945 254.537, 0.723 252.750 C 0.502 250.963, 0.320 252.425, 0.320 256" stroke="none" fill="#202c34" fill-rule="evenodd"/><path d="" stroke="none" fill="#1c2c34" fill-rule="evenodd"/></svg>