<svg xmlns="http://www.w3.org/2000/svg" width="1100" height="1100" viewBox="0 0 1100 1100" version="1.1">
    <rect x="50" y="50" height="1000" width="1000" stroke="white" rx="10" style="stroke-width:30" fill="none"/>
    <!--rect x="150" y="150" height="800" width="800" stroke="white" rx="10" style="stroke-width:10" fill="none"/-->
    <circle cx="125" cy="125" r="30" fill="white"/>
    <circle cx="975" cy="125" r="30" fill="white"/>
    <circle cx="975" cy="975" r="30" fill="white"/>
    <circle cx="125" cy="975" r="30" fill="white"/>
    
    <!--line x1="211.5" y1="223" x2="888" y2="223" stroke="white" style="stroke-width:5" stroke-linecap="round"/>
    <line x1="211.5" y1="296" x2="888" y2="296" stroke="white" style="stroke-width:10" stroke-linecap="round"/>
    <line x1="211.5" y1="369" x2="888" y2="369" stroke="white" style="stroke-width:10" stroke-linecap="round"/>
    <line x1="211.5" y1="442" x2="888" y2="442" stroke="white" style="stroke-width:10" stroke-linecap="round"/>
    <line x1="211.5" y1="515" x2="888" y2="515" stroke="white" style="stroke-width:10" stroke-linecap="round"/>
    <line x1="211.5" y1="588" x2="888" y2="588" stroke="white" style="stroke-width:10" stroke-linecap="round"/>
    <line x1="211.5" y1="661" x2="888" y2="661" stroke="white" style="stroke-width:10" stroke-linecap="round"/>
    <line x1="211.5" y1="734" x2="888" y2="734" stroke="white" style="stroke-width:10" stroke-linecap="round"/>
    <line x1="211.5" y1="807" x2="888" y2="807" stroke="white" style="stroke-width:10" stroke-linecap="round"/>
    <line x1="211.5" y1="880" x2="888" y2="880" stroke="white" style="stroke-width:10" stroke-linecap="round"/-->
    
    <!-- S' -->
    <line x1="211.5" y1="223" x2="273" y2="223" stroke="white" style="stroke-width:30" stroke-linecap="round"/>
    <!-- ISCH -->
    <line x1="396" y1="223" x2="519" y2="223" stroke="white" style="stroke-width:30" stroke-linecap="round"/>
    <!-- ZWANZIG -->
    <line x1="457.5" y1="296" x2="888" y2="296" stroke="white" style="stroke-width:30" stroke-linecap="round"/>
    <!-- VOR -->
    <line x1="211.5" y1="369" x2="396" y2="369" stroke="white" style="stroke-width:30" stroke-linecap="round"/>
    <!-- HALB -->
    <line x1="211.5" y1="515" x2="457.5" y2="515" stroke="white" style="stroke-width:30" stroke-linecap="round"/>
    <!-- ZWÖLF -->
    <line x1="588" y1="880" x2="888" y2="880" stroke="white" style="stroke-width:30" stroke-linecap="round"/>
</svg>